<svg xmlns="http://www.w3.org/2000/svg" viewBox="0 0 166 32"><defs><style>.cls-1{fill:#fff;opacity:0;}.cls-2{fill:#fff;}.cls-s{fill:#FFD640;}</style></defs><g id="图层_2" data-name="图层 2"><g id="图层_1-2" data-name="图层 1"><g id="Logo_Horizontal_W"><rect id="_1" data-name="1" class="cls-1" width="166" height="32"/><g id="_1-2" data-name="1"><g id="_1-3" data-name="1"><path id="_1-4" data-name="1" class="cls-s" d="M9.69,11.88a6.78,6.78,0,0,1,11-3.4l4.8-4.8A13.56,13.56,0,0,0,3.16,10,2.53,2.53,0,0,1,.72,11.88H.14v1.7H27.29v-1.7Z"/><path id="_1-5" data-name="1" class="cls-s" d="M18,14.42H.14v1.7H17.73a6.78,6.78,0,0,1-11,3.4l-4.81,4.8A13.56,13.56,0,0,0,24.26,18a2.53,2.53,0,0,1,2.44-1.85h.59v-1.7H18Z"/></g><g id="_1-6" data-name="1"><path class="cls-2" d="M52.48,8.11a5.51,5.51,0,0,0-.82-.61,8.73,8.73,0,0,0-1.44-.73,14,14,0,0,0-1.83-.63,7.74,7.74,0,0,0-2-.27,4.52,4.52,0,0,0-2.7.67,2.18,2.18,0,0,0-.91,1.88,1.92,1.92,0,0,0,.57,1.46,4.64,4.64,0,0,0,1.73.92c.77.26,1.73.53,2.88.83A20,20,0,0,1,51.82,13a6.28,6.28,0,0,1,2.53,2,5.65,5.65,0,0,1,.88,3.32,6.64,6.64,0,0,1-.67,3.11A5.57,5.57,0,0,1,52.7,23.5,8.19,8.19,0,0,1,50,24.66a13.24,13.24,0,0,1-3.2.37,17,17,0,0,1-3.39-.35,17.88,17.88,0,0,1-3.26-1,15.31,15.31,0,0,1-2.88-1.58l2-3.81a6.38,6.38,0,0,0,1,.75,14,14,0,0,0,1.79.93,14.55,14.55,0,0,0,2.31.78,9.78,9.78,0,0,0,2.52.32,5,5,0,0,0,2.72-.6,2.06,2.06,0,0,0,.19-3.3,6.68,6.68,0,0,0-2-1c-.88-.29-1.91-.6-3.11-.94a19.4,19.4,0,0,1-3.58-1.36A5.25,5.25,0,0,1,38.92,12a5.38,5.38,0,0,1-.71-2.87,6.6,6.6,0,0,1,1.11-3.9,6.83,6.83,0,0,1,3-2.39A10.51,10.51,0,0,1,46.5,2a12.82,12.82,0,0,1,3,.35,15.55,15.55,0,0,1,2.67.93,15.25,15.25,0,0,1,2.24,1.25Z"/><path class="cls-2" d="M55.94,20a4.55,4.55,0,0,1,.91-2.82,5.89,5.89,0,0,1,2.54-1.89,10,10,0,0,1,3.75-.66,14.3,14.3,0,0,1,2.14.16,7.86,7.86,0,0,1,1.89.51v-.89a3.09,3.09,0,0,0-1-2.42,4.09,4.09,0,0,0-2.8-.84,7.46,7.46,0,0,0-2.62.47A13,13,0,0,0,58.18,13L56.8,10.19a13.46,13.46,0,0,1,3.41-1.63A12,12,0,0,1,63.87,8a8.12,8.12,0,0,1,5.58,1.77,6.39,6.39,0,0,1,2,5v5.27a1.49,1.49,0,0,0,.24.95,1.18,1.18,0,0,0,.78.34v3.49l-1,.16a6.42,6.42,0,0,1-.79.06,2.85,2.85,0,0,1-1.93-.57,2.49,2.49,0,0,1-.82-1.41l-.09-.86a7.49,7.49,0,0,1-2.72,2.17,7.79,7.79,0,0,1-3.33.77,6.48,6.48,0,0,1-3-.68,5.17,5.17,0,0,1-2.08-1.87A4.89,4.89,0,0,1,55.94,20Zm10.43.84a4.65,4.65,0,0,0,.57-.75,1.37,1.37,0,0,0,.23-.69V17.72a9.9,9.9,0,0,0-3.36-.66,4.91,4.91,0,0,0-2.74.71A2.12,2.12,0,0,0,60,19.62a2.25,2.25,0,0,0,.35,1.19,2.6,2.6,0,0,0,1,.9,3.44,3.44,0,0,0,1.6.34,5.14,5.14,0,0,0,1.88-.36A4.66,4.66,0,0,0,66.37,20.81Z"/><path class="cls-2" d="M83.88,24l-1.31.51a11,11,0,0,1-1.65.46,8.86,8.86,0,0,1-1.77.18A5.72,5.72,0,0,1,77,24.78a3.45,3.45,0,0,1-1.58-1.32,4.19,4.19,0,0,1-.59-2.36V11.56H72.59V8.27H74.8V2.83h4.28V8.27H82.6v3.29H79.08v8.08a1.59,1.59,0,0,0,.48,1.23,1.64,1.64,0,0,0,1.12.38A3.88,3.88,0,0,0,82,21l1-.38Z"/><path class="cls-2" d="M92.27,25.19a9.58,9.58,0,0,1-3.68-.68,8,8,0,0,1-2.76-1.88,8.58,8.58,0,0,1-1.75-2.76,8.92,8.92,0,0,1-.6-3.25,9,9,0,0,1,.6-3.29,8.58,8.58,0,0,1,1.75-2.76,8,8,0,0,1,2.76-1.88A9.58,9.58,0,0,1,92.27,8a9.37,9.37,0,0,1,3.66.68,8.29,8.29,0,0,1,2.77,1.88,8.07,8.07,0,0,1,1.74,2.76,9,9,0,0,1,.6,3.29,8.92,8.92,0,0,1-.6,3.25,8.33,8.33,0,0,1-1.72,2.76A8.09,8.09,0,0,1,96,24.51,9.54,9.54,0,0,1,92.27,25.19Zm-4.38-8.57a5.39,5.39,0,0,0,.58,2.55A4.26,4.26,0,0,0,90,20.91a4.09,4.09,0,0,0,2.24.63,4,4,0,0,0,2.21-.64,4.65,4.65,0,0,0,1.58-1.76,5.27,5.27,0,0,0,.59-2.55A5.36,5.36,0,0,0,96.06,14a4.4,4.4,0,0,0-1.58-1.75,4.22,4.22,0,0,0-4.45,0,4.52,4.52,0,0,0-1.56,1.76A5.4,5.4,0,0,0,87.89,16.62Z"/><path class="cls-2" d="M109.3,25.19a7,7,0,0,1-5.46-2.5A8.6,8.6,0,0,1,102.29,20a10.3,10.3,0,0,1,0-6.67,9,9,0,0,1,1.62-2.77,7.22,7.22,0,0,1,2.46-1.86A7.4,7.4,0,0,1,109.55,8a6.59,6.59,0,0,1,3.42.87,7.15,7.15,0,0,1,2.44,2.33V8.27h3.74V24.12a7.34,7.34,0,0,1-1.2,4.24,7.63,7.63,0,0,1-3.31,2.7,11.65,11.65,0,0,1-4.8.94,10.53,10.53,0,0,1-4.61-.91A9.47,9.47,0,0,1,102,28.51l2.34-2.27a6.65,6.65,0,0,0,2.41,1.86,7.25,7.25,0,0,0,3.09.67,6.56,6.56,0,0,0,2.51-.47,4,4,0,0,0,1.82-1.44,4.37,4.37,0,0,0,.69-2.57V22.18a5.6,5.6,0,0,1-2.35,2.22A6.81,6.81,0,0,1,109.3,25.19Zm1.44-3.42a4.06,4.06,0,0,0,1.34-.23,4.55,4.55,0,0,0,1.18-.61,4.87,4.87,0,0,0,1-.91,4.51,4.51,0,0,0,.64-1.08v-4a5.2,5.2,0,0,0-1.07-1.73,5.1,5.1,0,0,0-1.54-1.14,4,4,0,0,0-1.77-.4,3.78,3.78,0,0,0-1.79.42,4,4,0,0,0-1.38,1.17,5.93,5.93,0,0,0-.88,1.67,6,6,0,0,0-.3,1.9,5.34,5.34,0,0,0,.35,1.93,5,5,0,0,0,1,1.57,4.47,4.47,0,0,0,1.47,1.06A4.27,4.27,0,0,0,110.74,21.77Z"/><path class="cls-2" d="M120.74,20a4.55,4.55,0,0,1,.91-2.82,5.83,5.83,0,0,1,2.54-1.89,9.9,9.9,0,0,1,3.74-.66,14.34,14.34,0,0,1,2.15.16,7.64,7.64,0,0,1,1.88.51v-.89A3.08,3.08,0,0,0,131,12a4.09,4.09,0,0,0-2.8-.84,7.42,7.42,0,0,0-2.62.47A13.38,13.38,0,0,0,123,13l-1.37-2.81A13.3,13.3,0,0,1,125,8.56,12,12,0,0,1,128.67,8a8.12,8.12,0,0,1,5.58,1.77,6.39,6.39,0,0,1,2,5v5.27a1.49,1.49,0,0,0,.24.95,1.18,1.18,0,0,0,.78.34v3.49l-1,.16a6.28,6.28,0,0,1-.78.06,2.9,2.9,0,0,1-1.94-.57,2.48,2.48,0,0,1-.81-1.41l-.1-.86a7.32,7.32,0,0,1-2.72,2.17,7.71,7.71,0,0,1-3.32.77,6.48,6.48,0,0,1-3-.68,5.17,5.17,0,0,1-2.08-1.87A4.89,4.89,0,0,1,120.74,20Zm10.42.84a4.21,4.21,0,0,0,.58-.75,1.35,1.35,0,0,0,.22-.69V17.72a8.24,8.24,0,0,0-1.66-.48,8.63,8.63,0,0,0-1.7-.18,4.86,4.86,0,0,0-2.73.71,2.12,2.12,0,0,0-1.07,1.85,2.25,2.25,0,0,0,.35,1.19,2.57,2.57,0,0,0,1,.9,3.47,3.47,0,0,0,1.6.34,5.2,5.2,0,0,0,1.89-.36A4.51,4.51,0,0,0,131.16,20.81Z"/><path class="cls-2" d="M148.68,24l-1.31.51a11.72,11.72,0,0,1-1.65.46,8.88,8.88,0,0,1-1.78.18,5.67,5.67,0,0,1-2.17-.41,3.53,3.53,0,0,1-1.59-1.32,4.27,4.27,0,0,1-.59-2.36V11.56h-2.2V8.27h2.2V2.83h4.29V8.27h3.52v3.29h-3.52v8.08a1.59,1.59,0,0,0,.48,1.23,1.64,1.64,0,0,0,1.12.38,3.92,3.92,0,0,0,1.31-.22c.43-.15.77-.28,1-.38Z"/><path class="cls-2" d="M157.1,25.19a9.49,9.49,0,0,1-3.65-.68,8.46,8.46,0,0,1-2.78-1.87,8.3,8.3,0,0,1-1.77-2.72,8.43,8.43,0,0,1-.63-3.24,8.91,8.91,0,0,1,1.07-4.33,8.17,8.17,0,0,1,3.08-3.15A9.05,9.05,0,0,1,157.13,8a8.87,8.87,0,0,1,4.7,1.19,8.14,8.14,0,0,1,3,3.14,8.81,8.81,0,0,1,1,4.19q0,.39,0,.78c0,.26,0,.48-.06.65h-13a4.81,4.81,0,0,0,.76,2.19,4,4,0,0,0,1.6,1.42,4.65,4.65,0,0,0,2.09.48,4.93,4.93,0,0,0,2.42-.62,3.37,3.37,0,0,0,1.55-1.65l3.68,1a7,7,0,0,1-1.75,2.27,8.4,8.4,0,0,1-2.67,1.55A9.88,9.88,0,0,1,157.1,25.19Zm-4.38-10h8.76a4.74,4.74,0,0,0-.72-2.17,4,4,0,0,0-1.55-1.44,4.48,4.48,0,0,0-2.14-.51,4.35,4.35,0,0,0-2.1.51,4.14,4.14,0,0,0-1.53,1.44A4.74,4.74,0,0,0,152.72,15.24Z"/></g></g></g></g></g></svg>